<svg id="Layer_1" data-name="Layer 1" xmlns="http://www.w3.org/2000/svg" viewBox="0 0 560.97 80"><defs><style>.cls-1{fill:#222a2e;}.cls-2{fill:#526f96;}.cls-3{fill:#8e9299;}</style></defs><title>density-open-source-logos</title><path class="cls-1" d="M164.55,34.62l-7.73.69c-1.25-7.42-6.79-11.53-14.15-11.53-9.16,0-15.46,6.55-15.46,17.33,0,11.28,6.79,17.33,15.52,17.33,7.29,0,12.78-3.93,14.09-11.1L164.61,48C162.8,58.62,154.08,65,143,65c-13.34,0-23.31-8.85-23.31-23.94s9.85-23.94,23.25-23.94C154,17.17,163,23.77,164.55,34.62Z"/><path class="cls-1" d="M176.77,36.05c1.5-2.24,4.49-4.18,9-4.18,7.29,0,12.47,5,12.47,13.28V64.42h-7V46.09c0-4.8-2.74-7.73-7-7.73-4.43,0-7.42,3.37-7.42,7.79V64.42h-7V16h7V36.05Z"/><path class="cls-1" d="M230.88,44.53V64.42h-7V61.55A12.3,12.3,0,0,1,215.17,65c-6.36,0-10.66-3.37-10.66-9.35,0-6.86,5.17-9.29,11.72-9.66l7.6-.44V44.66c0-4.11-1.75-6.67-5.67-6.67s-5.73,2.56-5.73,5.42l-7-.25c0-5.61,4.74-11.28,12.72-11.28C226.33,31.88,230.88,36.37,230.88,44.53Zm-13.65,6.92c-3.3.19-5.67,1.25-5.67,4.11,0,2.68,2,3.62,4.8,3.62,4.43,0,7.54-2.18,7.54-7V51Z"/><path class="cls-1" d="M255.31,38.86c-5.49,0-8.91,3.49-8.91,8.17V64.42h-7v-32h6.79v4.49c1.18-2.49,4-4.86,9.1-4.86v6.79Z"/><path class="cls-1" d="M280.62,58.31v6.23a26.37,26.37,0,0,1-4.68.37c-6.3,0-10.66-3.12-10.6-10.35l0.06-16.08h-5.92v-6h5.92l0.06-10.85h7l-0.06,10.85h8.1v6h-8.17l-0.06,14.65c0,4.18,2.43,5.49,5.3,5.49A16.29,16.29,0,0,0,280.62,58.31Z"/><path class="cls-1" d="M309.92,42l-7,.37c-0.25-2.68-1.93-4.55-5.49-4.55-3.3,0-5,1.37-5,3.55,0,2.74,2.74,3,7,4,6.61,1.68,11,3.68,11,9.41C310.48,61.24,305.74,65,298,65s-12.34-3.86-13.09-10.22l7-.44c0.37,2.93,2.43,4.61,6.23,4.61,3.18,0,5.42-1.25,5.42-3.62,0-2.62-1.68-3.24-6.92-4.49-6.48-1.56-11.1-2.93-11.1-9.35,0-5.73,4.43-9.66,12.16-9.66S309.3,36.37,309.92,42Z"/><path class="cls-2" d="M77.4,0H2.6A2.6,2.6,0,0,0,0,2.6V77.4A2.6,2.6,0,0,0,2.6,80H77.4A2.6,2.6,0,0,0,80,77.4V2.6A2.6,2.6,0,0,0,77.4,0Zm-2.6,74.81H5.19v-15L21.54,43.43,38.44,56.1A2.6,2.6,0,0,0,42,55.69L65.37,27.64a2.6,2.6,0,1,0-4-3.33L39.58,50.47,22.86,37.92a2.6,2.6,0,0,0-3.39.24L5.19,52.43V5.19H74.81V74.81Z"/><path class="cls-3" d="M362.4,54.72l-2.51.22a4.34,4.34,0,0,0-4.6-3.75c-3,0-5,2.13-5,5.63,0,3.67,2.21,5.63,5,5.63a4.3,4.3,0,0,0,4.58-3.61l2.53,0.22c-0.59,3.44-3.42,5.53-7,5.53-4.34,0-7.58-2.88-7.58-7.78S351,49,355.37,49C359,49,361.89,51.19,362.4,54.72Z"/><path class="cls-3" d="M370.08,56.09a2.64,2.64,0,0,0-2.9,2.65V64.4h-2.27V54h2.21v1.46a3,3,0,0,1,3-1.58v2.21Z"/><path class="cls-3" d="M380.06,57.94V64.4h-2.29V63.47A4,4,0,0,1,375,64.6c-2.07,0-3.46-1.09-3.46-3,0-2.23,1.68-3,3.81-3.14l2.47-.14V58c0-1.34-.57-2.17-1.84-2.17a1.69,1.69,0,0,0-1.86,1.76l-2.29-.08a3.85,3.85,0,0,1,4.13-3.67C378.59,53.82,380.06,55.28,380.06,57.94Zm-4.44,2.25c-1.07.06-1.84,0.41-1.84,1.34s0.65,1.18,1.56,1.18a2.16,2.16,0,0,0,2.45-2.29V60Z"/><path class="cls-3" d="M388.61,48.62v2a5.24,5.24,0,0,0-.65,0,1.83,1.83,0,0,0-1.94,2V54h2.55v2H386V64.4h-2.27V56h-2V54h2V52.57a3.71,3.71,0,0,1,4-4A5.43,5.43,0,0,1,388.61,48.62Z"/><path class="cls-3" d="M396.19,62.42v2a8.56,8.56,0,0,1-1.52.12c-2,0-3.46-1-3.44-3.36l0-5.23h-1.92V54h1.92l0-3.53h2.29l0,3.53h2.63v2h-2.65l0,4.76a1.56,1.56,0,0,0,1.72,1.78A5.3,5.3,0,0,0,396.19,62.42Z"/><path class="cls-3" d="M400.14,60.06a2.62,2.62,0,0,0,2.78,2.57,2.31,2.31,0,0,0,2.47-1.48l2.29,0.12A4.63,4.63,0,0,1,403,64.6a5,5,0,0,1-5.25-5.39c0-3.38,2.17-5.39,5.19-5.39s4.86,2,4.86,5.13v1.11h-7.64Zm0-1.78h5.33a2.38,2.38,0,0,0-2.59-2.51A2.55,2.55,0,0,0,400.16,58.28Z"/><path class="cls-3" d="M418.19,64.4V63a3.87,3.87,0,0,1-3.42,1.64c-2.9,0-5-2.09-5-5.39s2.11-5.39,5-5.39a4,4,0,0,1,3.3,1.44v-6.6h2.27V64.4h-2.15Zm-6.12-5.19c0,2.21,1.3,3.42,3.06,3.42a2.83,2.83,0,0,0,2.94-3.16V58.93a2.84,2.84,0,0,0-2.94-3.16C413.37,55.77,412.07,57,412.07,59.21Z"/><path class="cls-3" d="M430.61,55.26a4,4,0,0,1,3.3-1.44c2.9,0,5,2.07,5,5.39s-2.11,5.39-5,5.39A3.87,3.87,0,0,1,430.49,63V64.4h-2.15V48.66h2.27v6.6Zm0,3.67v0.55a2.83,2.83,0,0,0,2.94,3.16c1.76,0,3.06-1.22,3.06-3.42s-1.3-3.44-3.06-3.44A2.84,2.84,0,0,0,430.61,58.93Z"/><path class="cls-3" d="M441.33,69.57l2.55-5.9L439.77,54h2.53l2.8,7.11,2.8-7.11h2.53l-6.6,15.56h-2.49Z"/><path class="cls-1" d="M512.32,53.66h1.93a0.37,0.37,0,0,1,.37.37v1a4,4,0,0,1,3.33-1.62c2.73,0,4.39,1.77,4.39,4.72v6.32h-2a0.37,0.37,0,0,1-.37-0.37V58.36c0-1.77-.89-2.9-2.62-2.9a2.78,2.78,0,0,0-2.75,3.07v6h-1.95a0.37,0.37,0,0,1-.37-0.37V53.66Z"/><path class="cls-1" d="M524.63,62.19l1.78-.93a0.36,0.36,0,0,1,.47.11,3.06,3.06,0,0,0,2.6,1.31c1.3,0,2-.67,2-1.43s-1.25-1.06-2.62-1.34c-1.84-.39-3.74-1-3.74-3.22,0-1.71,1.62-3.29,4.18-3.27a4.93,4.93,0,0,1,4.35,2.1l-1.65.91a0.37,0.37,0,0,1-.46-0.09,2.83,2.83,0,0,0-2.24-1c-1.23,0-1.86.61-1.86,1.3s1,1,2.55,1.34c1.77,0.39,3.79,1,3.79,3.22,0,1.49-1.3,3.5-4.37,3.48A5.06,5.06,0,0,1,524.63,62.19Z"/><path class="cls-1" d="M536.44,49.14h2a0.37,0.37,0,0,1,.37.37v2.12h-2a0.37,0.37,0,0,1-.37-0.37V49.14Zm0,4.52h2a0.37,0.37,0,0,1,.37.37V64.48h-2a0.37,0.37,0,0,1-.37-0.37V53.66Z"/><polygon class="cls-1" points="545.76 49.84 545.73 49.85 545.76 49.85 545.76 49.84"/><path class="cls-1" d="M547.84,62.33h-0.3a2.17,2.17,0,0,1-.92-0.18,1.45,1.45,0,0,1-.81-1.11,7.18,7.18,0,0,1-.05-0.93l0-4.38H548V54a0.37,0.37,0,0,0-.37-0.37h-1.93V49.85h0L543.61,51a0.37,0.37,0,0,0-.19.32v2.34h-1.84v1.71a0.37,0.37,0,0,0,.37.37h1.47v0.2l0,5c0,2.44,1.45,3.49,3.58,3.49H547a9.11,9.11,0,0,0,1-.05l0.5-.07V62.67a0.37,0.37,0,0,0-.41-0.36Z"/><path class="cls-1" d="M554.37,63.92L549.9,53.66h2.25a0.37,0.37,0,0,1,.34.22l3.06,7.28,2.89-7.28a0.37,0.37,0,0,1,.34-0.23H561l-6.44,15.59a0.37,0.37,0,0,1-.34.23h-2.14Z"/><path class="cls-1" d="M504.22,62.64a3.31,3.31,0,0,1-3.48-2.77h8.59a0.37,0.37,0,0,0,.37-0.37v-0.4a5.63,5.63,0,0,0-5.61-5.66,5.57,5.57,0,0,0-5.58,5.67,5.77,5.77,0,0,0,10.43,3.2l-1.63-.91a0.36,0.36,0,0,0-.45.08A3.41,3.41,0,0,1,504.22,62.64Zm-0.09-7.16a3,3,0,0,1,3.2,2.42h-6.49A3.36,3.36,0,0,1,504.13,55.48Z"/><path class="cls-1" d="M483.33,49.07a0.37,0.37,0,0,1,.37-0.37h4.36c5.12,0,8.27,3.41,8.27,7.88a7.83,7.83,0,0,1-8.19,7.88h-4.82V49.07Zm2.35,1.79V62.29h2.22c3.63,0,6-2.46,6-5.7s-2.18-5.72-6.13-5.72h-2.14Z"/><path class="cls-1" d="M465.8,59.78a5.79,5.79,0,0,0,2.8-5V51a0.37,0.37,0,0,1,.37-0.37h1.73a0.37,0.37,0,0,1,.37.37v3.83a5.79,5.79,0,0,0,2.8,5l3.41,2a0.37,0.37,0,0,1,.13.5l-0.87,1.5a0.37,0.37,0,0,1-.5.13l-3.35-1.94a5.8,5.8,0,0,0-5.73,0l-3.35,1.94a0.37,0.37,0,0,1-.5-0.13l-0.87-1.5a0.37,0.37,0,0,1,.13-0.5Z"/></svg>